<svg xmlns="http://www.w3.org/2000/svg" width="27" height="27" viewBox="0 0 27 27">
  <path id="Icon_ionic-logo-whatsapp" data-name="Icon ionic-logo-whatsapp" d="M15.995,2.25A13.2,13.2,0,0,0,2.74,15.4a13.016,13.016,0,0,0,1.9,6.791L2.25,29.25l7.338-2.331A13.277,13.277,0,0,0,29.25,15.4,13.2,13.2,0,0,0,15.995,2.25ZM22.586,20.4a3.424,3.424,0,0,1-2.344,1.511c-.622.033-.639.482-4.028-.99s-5.427-5.053-5.588-5.284a6.5,6.5,0,0,1-1.25-3.523,3.756,3.756,0,0,1,1.29-2.756,1.3,1.3,0,0,1,.918-.386c.267,0,.44-.008.637,0s.494-.041.75.641.87,2.36.949,2.531a.614.614,0,0,1,.006.589,2.3,2.3,0,0,1-.359.547c-.177.19-.372.424-.53.569-.176.161-.36.336-.175.679a10.143,10.143,0,0,0,1.795,2.395,9.248,9.248,0,0,0,2.658,1.767c.332.181.531.161.737-.056s.882-.949,1.121-1.276.462-.264.768-.14,1.938,1,2.27,1.178.554.273.633.416A2.783,2.783,0,0,1,22.586,20.4Z" transform="translate(-2.25 -2.25)" fill="#0085ff"/>
</svg>
